<?xml version="1.0" encoding="utf-8"?>
<!-- Generator: Adobe Illustrator 15.0.0, SVG Export Plug-In . SVG Version: 6.00 Build 0)  -->
<!DOCTYPE svg PUBLIC "-//W3C//DTD SVG 1.1//EN" "http://www.w3.org/Graphics/SVG/1.1/DTD/svg11.dtd">
<svg version="1.1" id="Layer_1" xmlns="http://www.w3.org/2000/svg" xmlns:xlink="http://www.w3.org/1999/xlink" x="0px" y="0px"
	 width="670px" height="560px" viewBox="0 0 670 560" enable-background="new 0 0 670 560" xml:space="preserve">
<path id="Sélection__x23_1" fill="#F1F1F1" d="M379.66,73.779c7.149,5.46,12.46,10.94,17,18.76c-5.891,1.8-8.48,1.5-14,2.63
	c-2.16,0.21-4.7,1.12-6.82,0c-2.52-0.95-5.26-6-7.5-8.34c-4.93-5.14-12.858-10.15-19.68-12.25c-8-2.47-14.8-2.3-23-2.08
	c-8.58,0.24-13.2-2.33-21-3.79c-4.67-0.88-10.93-1.79-15-4.17C320.129,56.459,353.21,53.549,379.66,73.779z M179.05,117.539
	c12.84-15.66,28.84-29.55,47.61-37.67c11.24-4.85,11.37-3.83,22-5.99l15-3.05c22.03-2.88,44.39,0.52,65,8.71v2
	c-4.73,2.04-18.79,10.17-22,10.4l-18-4.12c-13.34-1.89-31.22-0.82-44,3.58c-10.74,3.69-25.88,11.63-35,18.3
	c-7.81,5.7-14.04,13.65-17.28,16.03c-2.46,1.79-9.5,4.28-12.72,5.66c-5.37,2.31-10.39,5.55-16,7.15
	C167.32,131.079,173.77,123.969,179.05,117.539z M461.66,125.539c-3.18,0-13.101,0.59-15.37-0.99l-9.35-14.01
	c-5.32-7.56-13.352-16.02-21.28-20.83c-12.15-7.36-23.73-5.97-30-17.17C422.73,72.539,446.08,93.139,461.66,125.539z
	 M250.66,129.039c2.52-0.33,7.09,1.7,10,2.18c5.1,0.84,9.47-0.3,14-2.66c9.43-4.93,16.54-13.69,24.01-20.979
	c7.59-7.41,21.41-18.18,30.99-22.72c12.241-5.8,21.72-9.93,32,1.68l-19,6.31c-13.17,5.94-29.481,20.14-38,31.69l-3-1
	c1.45,10.45-7.9,10.37-4,24c11.97-4.58,14.96-13.35,23.42-21.68c2.07-2.03,7.57-7.61,10.561-6.87c2.029,0.51,3.891,2.979,5.131,4.56
	c2.76,3.49,8.89,12.38,7.97,16.99c-0.601,3.02-5.28,7.18-7.29,10c-2.891,4.04-7.991,15.07-7.311,20c0.409,2.99,2.71,6.76,4.729,8.94
	c5.85,6.31,14.831,4.4,18.621-2.96c1.06-2.06,2.14-13.26,2.14-15.98c0-11.45-6.1-26.65-12.479-36
	c-4.011-5.89-10.812-13.07-13.491-19c3.689-1.97,14.21-8.96,18-8.18c4.31,0.89,8.75,8.55,10.85,12.18
	c3.04,5.25,9.021,16.55,11.091,22c2.239,5.92,3,12.43,6.061,18c3.479-10.04,4.13-12.23,5-23l24-7c-0.84,6.26-0.41,10.83,0,17
	c0.17,2.53,0.4,5.68,3.15,6.84c2.818,1.19,5.789-1.49,7.85-3.1c5.06-3.95,7.65-5.99,14-7.91c12.979-3.33,30.95-3.54,44,0
	c5.11,1.11,11.87,3.08,15.9,6.56c5.278,4.56,8.84,14.08,11.1,20.61l-15-9.02c-15.65-6.31-45.66-4.55-58.96,6.41
	c-4.41,3.63-10.37,11.5-2.98,15.59c2.271,1.26,7.312,1.37,9.94,1.28l15-0.62c2.6-0.23,7.189-1.2,9.61,0
	c2.369,1.04,3.238,4.08,4.05,6.36c1.89,5.33,4.5,12.54,5.34,18.14c-10.03-0.6-9.6-1.77-21,0c-22.65,3.92-39.9,16.64-54.41,33.86
	c-7.359,8.74-15.29,21.21-15.58,33c-0.47,19.64,12.15,35.12,27.99,45.3l16,8.148c10.979,6.521,13.25,12.33,22,18.512
	c8.16,5.76,24.979,11.568,35,10.859c8.28-0.59,15.26-3.142,23-5.82c0.49,3.721,2.15,14.359,0,17.35c-1.74,2.451-9.04,4.541-12,5.221
	c-10.64,2.461-22.07,5.551-33,5.23c-8.14,0.1-12.92-3.551-17.96,0c-6.32,3.99-7.351,12.629-9.851,19.199l-4.289,9
	c-1.16,2.32-3.262,6.609-5.432,8.01c-2.608,1.682-17.51,0.99-21.47,0.99l5.96-15c2.24-7.63,0.08-21.58-4.47-28
	c-3.12-4.41-8.932-9.221-14.49-9.801c-9.67-1-16.65,8.842-15.89,17.801c0.67,7.949,6.369,10.41,6.85,19
	c0.65,11.801-6.3,27.1-13.71,36c-2.62,3.141-6.2,7.62-10.25,8.82c-4.18,1.239-13.271-2.74-18-3.82
	c2.31-4.779,4.151-5.311,7.331-9.09c1.91-2.26,4.71-6.23,5.92-8.91c3.53-7.779,4.66-22.83-5.29-26.529
	c-5.26-1.961-11.191,3.1-15.96,3.189c-3.98,0.07-10.49-4.551-14-6.66c2.14-6.32,4.5-6.811,6.79-12
	c3.99-9.051,1.56-17.51-4.47-24.959c-6.98-8.621-19.621-11.121-28.22-3.421c-2.79,2.5-4.96,5.45-4.79,9.38
	c0.25,5.641,4.81,11.87,8.28,16c11.18,13.311,24.771,19.949,40.41,26.57l14.201,4.438c3.56,2.781,1.3,10.761,0,13.99
	c-16.932-4.89-36.161-13.229-51.201-22.011l-17-9.149c-2.59-1.34-7.03-3.72-9.98-3.34c-5.67,0.729-6.56,8.12-8.02,12.5
	c-5.3-2.601-14.25-8.63-16.92-13.91c-2.05-4.06,0.57-13.979-5.13-15.75c-2.99-0.931-3.74,2.53-3.89,4.66
	c-0.38,5.34,1.56,8.19,5.03,12c11.15,12.211,26.78,23.25,41.91,30v2c-2.51,1.489-6.16,3.84-9,4.36c-5.21,0.949-13.26-4.221-18-6.61
	c-9.33-4.699-20.61-12.369-27.97-19.789c-5.77-5.82-7.86-10.711-15.03-16.631c-6.21-5.13-14.99-7.199-18.28-11.539
	c-1.87-2.472-3.05-8.601-3.85-11.791c-0.47-1.89-1.68-6.091-1.38-7.869c0.47-2.892,3.13-3.621,5.51-4.541l18-6.399l31-9.859
	c8.6-4.34,21.66-18.619,27.91-26.329c8.12-10.021,16.48-26.921,17.05-40c0.31-6.99,0.23-12.81-6-17.35
	c-4.63-3.37-13.24-2.98-18.96-3.85c-5.31-0.81-12.46-3.99-16.99-6.86l-25.01-20.54c-10.39-6.74-25.26-8.5-37-4.65
	c-4.05,1.33-7.27,3.28-11,5.25c0.09-4.02,1.28-20.87,3.6-23.3c2.51-2.64,13.52-4.87,17.4-5.7c18.4-3.94,35.18-4.8,53,2.47
	c8.15,3.33,18.6,14.27,27,13.16c14.33-1.88,10.01-14.87,3.88-22.63c-12.59-15.93-23.26-16.33-40.88-21
	C235.27,143.589,245.1,129.749,250.66,129.039z M205.03,147.539c11.56-15.47,23.72-30.54,38.35-43.25l9.28-7.19
	c7.73-5.82,7.04-6.54,17-6.56c8.25-0.01,8.12,0.14,16,1c-2.28,3.55-6.5,5.07-10,7.34c-5.85,3.81-12.98,8.91-18,13.7
	c-9.79,9.35-21.93,22.229-30.12,32.96l-9.54,13c-1.33,1.96-4.21,6.8-5.95,8.02c-1.54,1.08-18.61,3.75-21.39,3.98
	C192.84,163.089,200.28,153.899,205.03,147.539z M407.66,96.989h8c1.8-0.04,3.18-0.4,5,0c5.26,1.88,10.92,9.64,13,14.55
	c-12.33,0-30.21,2.23-42,5.77l-20,7.23l-10-19C372.88,99.829,394.88,97.429,407.66,96.989z M509.561,138.539
	c2.391,3.63,5.899,11.79,7.399,16c5.16,14.51,3.57,23.22,5.7,32l-15-8c1.05-16.61-5.75-33.75-18-44.83
	c-6.2-5.61-10.94-9.09-18-13.49l-9.391-5.46c-1.579-1.4-8.391-12.84-9.609-15.22C474.22,103.599,497.55,120.339,509.561,138.539z
	 M119.03,189.539c11.9-24.14,30.73-37.34,53.63-50.09c13.87-7.73,28.95-14.56,45-15.91c-2.79,5.91-6.48,8.06-10.28,13.09
	c-2.28,3.02-4.6,7.7-7.9,9.48c-2.66,1.44-16.5,3.58-25.82,8.06c-10.74,5.16-18.68,11.84-26.91,20.33
	c-17.62,18.18-27.27,42.13-34.37,66.04l-7.72,29C104.66,246.389,108.78,210.339,119.03,189.539z M471.03,152.539
	c1.859,1.29,3.819,5.87,4.77,8l8.051,20l10.529,33c1.78,6,6.08,23.33,6.102,29l-2.23,16c-0.79,4.68-2.54,13.99-4.59,18l-3.45-19
	l-10.29-39l-6.92-20l-6.54-20l-10.8-26C459,151.729,468.16,150.529,471.03,152.539z M150.59,195.539c0.44-4.83,2-20.38,4.05-23.96
	c3.03-5.25,13.23-9.82,19.02-11.04l-3.47,9c-2.23,5.93-4.08,12.74-5.09,19c-1.56,9.65-1.4,14.49-1.44,24
	c-0.05,11.33-3.29,15.14-7.58,25l-6.42,15C148.1,233.269,148.81,214.749,150.59,195.539z M549.97,197.539
	c4.771,10.32,9.86,20.77,12.182,32c4.04,19.6,2.64,52-3.66,71c-5.65,17.061-14.141,36.461-31.82,44v-10
	c-0.029-2.32-0.148-5.859,0.57-8l7.91-13l4.199-9c4.971-11.221,9.25-31.65,9.311-44c0.1-22.24-0.3-28.65-8.37-50
	c-3.29-8.68-9.04-15.2-11.22-20c-1.59-3.53-2.062-9.97-2.681-14l-2.729-16C536.16,169.489,543.66,183.899,549.97,197.539z
	 M534.141,207.539c3.641,6.41,6.051,14.82,7.641,22c1.39,6.31,3.24,19.06,0.88,25c-3.45-15.12-12.62-31.32-24.04-41.82
	c-3.38-3.1-9.7-7.08-13.96-8.83c-3.89-1.6-7.26-1.34-9.15-3.2c-1.619-1.59-2.409-5.91-2.979-8.15l-4.87-18
	C505.65,180.779,524.36,190.339,534.141,207.539z M145.8,203.539c-0.26,3.43,0.17,7.96-0.84,11l-15.99,27
	c-10.36,22.63-13.6,48.359-13.31,73c0.07,5.59,0.59,5.92,1.54,11l1.95,11l15.18,36c1.52,4.57,5.67,15.711,5.33,20
	c-12.77-18.971-26.72-38.471-32.52-61c-5.42-21.05-2.03-41.279,2.87-62c7.14-30.27,13.33-55.58,35.79-79
	C147.4,194.919,146.479,199.019,145.8,203.539z M138.68,316.529c-1.32-2.74-0.42-6.1,0-8.99c1.19-8.82,2.45-13.55,4.95-21.999
	c5.94-20.151,12.37-40.111,21.78-59c2.24-4.49,6.98-15.66,10.46-18.44c4.4-3.51,15.34-4.29,20.79-3.56l-15.69,27l-18.44,39
	l-11.99,37l-3.88,16C143.66,321.789,140.28,319.77,138.68,316.529z M520.62,221.549c0.95,2.31,0.189,5.48,0,7.99l-1.96,21
	c-2.69,19.64-9.351,49.759-16.65,68c-1.5,3.76-7.38,19.17-9.85,21.02c-3.32,2.49-13.24,1.98-17.5,1.98
	c19.689-41.189,32-83.08,32-129C511.58,213.469,518.4,216.709,520.62,221.549z M169.66,269.539c-1.63,8.26,1.41,29.061,2.73,38
	c3.68,24.971,10.07,49.95,17.62,74l11.65,32c-4.97-0.93-14.03-4.42-17.37-8.26c-3.49-4.021-7.06-15.4-9.05-20.74
	c-7.06-18.92-13.25-41.971-15.73-62c-0.99-7.93-2.91-16.92-2.04-25c0.74-6.88,8.19-21,10.19-28H169.66z M134.979,316.539
	l12.68,12.24l9.84,7.029l4.16,17.729c-13.58-4.979-33.4-20.47-38.79-34c-2.84-7.13-2.55-17.539-1.21-24.999L134.979,316.539z
	 M519.79,315.539c1.93,13.721,2.89,27.15,2.87,41c-0.01,3.67-0.01,8.6-1.51,12c-2.271,5.131-10.182,10.561-15.49,12
	c2.53-10.279,2.05-19.539,2-30l-2.59-27c0.199-3.98,2.699-8.221,4.16-12l5.43-16.999C517.05,298.628,519.08,310.489,519.79,315.539z
	 M564.66,308.539v8l-2.391,13c-1.189,6.37-4.971,20.311-7.569,26c-8.561,18.76-31.69,40.17-50.04,49.34
	c-11.42,5.721-23.8,9.102-36,12.66c1.26-2.93,5.81-13.539,7.649-15.3c2.069-2,9.29-4.38,12.351-5.819
	c7.6-3.561,17.62-8.711,24-14.021c12.76-10.619,20.05-18.92,27.399-33.859l6.159-16l6.08-9c5.58-8.4,10.812-17.939,12.36-28
	C566.49,300.159,565.28,303.83,564.66,308.539z M147.89,351.859c1.76,2.709,1.52,14.82,2.07,18.68c1.43,10.061,5.43,21.92,9.97,31
	c4.94,9.891,10.28,19.67,17.98,27.711c12.69,13.25,15.26,9.689,25.75,26.289c-6.63-1.26-18.28-8.699-24-12.719
	c-17.55-12.342-21.43-22.922-29.58-41.281c-9.27-20.88-15.42-36.68-15.42-60C137.03,343.128,146.669,349.968,147.89,351.859z
	 M440.24,427.539l14.55-29l5.979-15l3.471-9.26l19.42-3.74c-6.83,19.7-15.32,37.859-25.58,56c-2.229,3.939-8.93,16.881-11.95,19.1
	c-2.55,1.871-13.91,2.74-17.47,2.9L440.24,427.539z M177.66,406.229c14.69,8.131,26.76,11.211,43,14.511
	c17.94,3.64,20.76,0.479,24,11.8c-18.21,0-38.15-3.021-55-10.01c-13.39-5.551-22.34-11.23-26-25.99L177.66,406.229z M284.62,407.798
	c2.96-2.5,8.72-9.198,12.05-9.698c4.19-0.632,12.15,4.549,14.99,7.438c-19.45,14.291-21.21,17.051-45,24l-4-9
	C271.26,417.33,277.59,413.75,284.62,407.798z M517.94,411.539c-3.08,10.131-7.631,17.041-14.57,25
	c-18.561,21.311-49.55,27.971-76.71,28c-13.601,0.02-25.65-1.6-39-4c4.84-10.24,9.29-10.021,19-9.08h10l12,1.061
	c9.43,0.189,24.92-2.25,34-5.02c12.77-3.891,24.42-10.061,32.479-20.961c4.681-6.33,5.011-12.109,8.17-15.369l16.351-10.631
	C520.65,404.18,519.021,408.009,517.94,411.539z M254.959,414.148l9.64,19.391l13.06,19h-9c-8.46-0.16-10.37-5.41-14.59-12
	c-6.28-9.82-15.61-25.5-17.41-37L254.959,414.148z M376.87,408.309l23.79,1.229l20,1h22c-0.53,2.93-1.21,6.312-3.5,8.44
	c-3.271,3.05-14.021,3.55-18.5,3.56c-11.87,0.02-39.34-0.869-50-4C371.54,415.439,373.49,409.389,376.87,408.309z M289.66,423.149
	c7.35-3.729,10.06-1.54,17,1.619c15.54,7.091,44.491,18.439,61,20.771c-5.84,11.77-15.141,7.09-25,4.631
	c-13.901-3.479-28.68-8.75-42-14.08l-17-7.551C285.439,425.449,286.459,424.779,289.66,423.149z M409.66,427.539
	c-6.19,9.75-14.57,17.82-22.91,25.721c-11.43,10.799-23.91,20.869-39.09,25.931c-10.29,3.42-23.081,6.209-32-1.65
	c16.84-2.59,44.02-17.24,55.911-29.09c5.51-5.49,12.688-15.851,16.09-22.91L409.66,427.539z M211.03,434.529l10.22,15.01
	c5.1,7.01,12.03,13.041,19.41,17.541c9.66,5.889,20.17,10.049,31,13.25l14,3.199l12,9.01c-8.56,0.891-23.6-2.02-32-4.27
	c-25.16-6.73-43.6-16.4-59.63-37.73c-4.63-6.17-9.24-13.539-11.37-21L211.03,434.529z M243.66,456.449
	c9.31,0.641,30.08,0.449,39-1.222c25.84-4.817,29.14-14.139,45-3.688c-4.351,2.83-13.74,5.811-19,7.811
	c-16.78,6.379-31.07,9.222-49,9.189c-3.46-0.01-6.65,0.08-10-0.99c-5.43-1.74-13.37-7.66-17-12.01L243.66,456.449z M292.66,469.189
	l23,14.538c6.72,3.353,29.69,8.132,37,7.722c12.82-0.73,27.59-5.449,39-11.16l20-11.24c2.08-0.6,4.82-0.51,7-0.51h14
	c-4.69,5.961-14.5,11.781-21,16c-29.01,18.801-61.55,21.59-94,10.67c-14.48-4.879-27.92-11.99-37-24.67
	C283.729,470.128,290.06,468.539,292.66,469.189z"/>
</svg>
